<?xml version="1.0" encoding="UTF-8" standalone="no"?>
<!-- Created with Inkscape (http://www.inkscape.org/) -->

<svg
   version="1.0"
   width="512.0625"
   height="530.5625"
   id="svg2">
  <path
     d="M 501.125,438.125 498.28125,440.0625 498.6875,441.9375 500.1875,443.84375 498.5,445.125 499.25,446.65625 498.125,447.96875 498.125,449.65625 500.03125,451.40625 500.03125,454.03125 498.875,456.46875 497.5625,457.0625 496.0625,454.96875 493.375,455.1875 492.8125,454.78125 490.53125,454.78125 488.5,456.6875 487.6875,459.90625 482.8125,460.84375 479.03125,464.03125 478.25,466.125 476.375,465.9375 475.40625,464.8125 474.875,468.03125 473.53125,468.59375 473.15625,471.59375 473.71875,472.9375 471.625,474.46875 471.0625,475.96875 469.53125,475.96875 469.53125,478.0625 471.4375,479.375 474.65625,481.25 474.875,482.78125 472.96875,483.34375 469.9375,483.9375 469.9375,485.21875 471.0625,486.375 471.28125,490.15625 475.40625,491.5 476.9375,491.84375 478.25,493.9375 477.3125,495.28125 475.8125,495.8125 474.65625,497.90625 473.53125,499.25 474.09375,502.625 476.9375,502.4375 477.6875,503.03125 480.34375,501.6875 481.09375,502.4375 479.78125,505.28125 481.09375,506.625 478.84375,508.3125 477.3125,511.71875 481.46875,512.6875 487.34375,513.21875 484.875,516.0625 C 484.875,516.0625 483.73141,515.61129 483.21875,515.84375 483.20355,515.85075 483.17015,515.86625 483.15625,515.87495 483.15225,515.87795 483.12915,515.90285 483.12505,515.90615 483.12105,515.91015 483.09775,515.93375 483.09385,515.93735 483.08985,515.94135 483.06605,515.96445 483.06265,515.96855 483.05665,515.97755 483.03715,515.99035 483.03145,515.99975 483.02845,516.00475 483.03445,516.02595 483.03145,516.03095 483.02645,516.04145 483.00405,516.08225 483.00025,516.09345 482.99825,516.09945 483.00225,516.11875 483.00025,516.12465 482.99725,516.13705 482.97075,516.17405 482.96905,516.18715 482.96805,516.20065 482.96951,516.23525 482.96905,516.24965 482.96906,517.1953 481.6878,519.4684 481.6878,519.4684 L 483.5628,521.5309 486.96905,523.62465 493.3753,525.31215 495.28155,526.0934 497.0003,526.8434 495.84405,528.93715 498.8753,528.74965 499.4378,530.06215 502.46905,530.06215 503.21905,526.4684 501.3128,526.0934 503.96905,523.24965 503.03155,522.2809 503.21905,520.5934 506.65655,518.7184 506.8128,516.62465 504.5628,516.4684 503.03155,517.74965 503.03155,515.87465 506.0625,515.6875 507,513.4375 507.75,506.8125 507.1875,503.96875 507.125,501.25 507,495.625 511.5625,489.21875 511.5625,478.625 509.65625,475.03125 509.09375,463.6875 507.75,461.59375 505.3125,459.71875 504.90625,452.6875 506.0625,449.5 504.5625,444.375 503.625,440.21875 502.84375,439.09375 501.125,438.125 z"
     id="corse"
     style="fill:none;stroke:#000000;stroke-opacity:1" />
  <path
     d="M 269.0625,0.5 263.03125,3.34375 253.59375,4.84375 253.0625,4.9375 242.59375,6.9375 234.28125,13.34375 234.28125,38.90625 234.21875,39.65625 233.6875,45.875 237.875,49.65625 237.875,51.5625 232.75,48.53125 226.625,56.125 225.375,57.625 217.28125,63.84375 202.90625,67.46875 193.4375,70.84375 185.6875,75.03125 181.125,81.84375 180.1875,87.125 183.96875,89.96875 189.46875,91.09375 188.59375,91.25 184.15625,92.03125 176.96875,96.21875 168.84375,99.40625 162.40625,95.8125 146.90625,93.53125 143.3125,91.65625 137.71875,93.09375 135.9375,93.53125 135.75,89 130.8125,83.15625 132.3125,79.375 134.40625,79.375 132.53125,74.28125 124.40625,73.875 120.03125,76.90625 115.125,73.6875 108.125,71.59375 107.375,73.5 111.34375,76.71875 111.34375,80.90625 109.84375,82.78125 110.78125,83.71875 111.34375,84.09375 110.96875,87.71875 112.28125,90.71875 116.65625,95.625 117.59375,100 118.53125,101.3125 118.53125,108.125 120.8125,112.65625 120.8125,117.96875 118.34375,122.875 120.96875,129.6875 125.15625,130.625 125.53125,132.53125 123.46875,133.46875 119.875,133.46875 110.59375,133.46875 107.1875,131.375 109.4375,128.34375 104.90625,128.15625 103.09375,130.21875 101.875,131.59375 98.28125,131.1875 97.90625,133.28125 95.65625,133.46875 95.46875,130.8125 93.5625,130.25 92.21875,131.75 92.21875,127.96875 89.96875,129.6875 86.5625,129.09375 85.4375,131.375 78.4375,135.15625 78.4375,137.0625 76.90625,137.0625 76.90625,133.625 72.96875,131.75 73.3125,128.34375 69.75,125.71875 69.75,122.5 67.09375,121.9375 67.28125,118.90625 65.21875,118.71875 65.375,116.625 61.59375,116.625 61.03125,118.5 59.90625,115.875 58.1875,117.21875 53.875,117.75 52.90625,119.09375 49.875,116.8125 45.90625,119.46875 47.40625,121.53125 44.78125,125.125 44.65625,125.0625 41.53125,123.25 36.25,123.4375 36.25,127.21875 34.75,127.21875 34.375,125.53125 32.09375,125.90625 31.71875,121.53125 29.65625,123.8125 27.375,122.875 23.21875,123.25 22.4375,125.125 20,125.71875 19.59375,123.625 15.28125,124.1875 15.28125,125.53125 12.25,125.71875 10.90625,124.78125 9.40625,125.53125 9,127.8125 3.9375,127.96875 1.28125,131.1875 3.53125,132.875 0.5,135.375 1.4375,137.0625 0.6875,141.21875 3.71875,141.59375 4.875,140.4375 5.4375,141.21875 12.625,140.28125 17.34375,136.875 13.1875,140.84375 13.5625,142.71875 17.34375,141.03125 16.59375,143.6875 20.75,143.875 20.5625,145 16.03125,144.8125 12.4375,143.875 8.0625,141.78125 5.4375,144.8125 8.84375,145.96875 8.65625,151.03125 9.59375,150.28125 11.6875,147.0625 15.65625,149.34375 17.5625,149.75 18.3125,152.75 17.15625,154.8125 14.6875,154.65625 12.4375,154.65625 8.65625,155.21875 2.21875,155.59375 0.90625,157.3125 2.78125,158.4375 4.875,158.25 6.5625,159.75 9,159.5625 13,164.125 13.9375,169.03125 12.625,171.6875 16.59375,172.4375 20.9375,172.21875 21.875,170.53125 20.1875,168.25 21.875,169.03125 23.59375,168.84375 26.625,170.53125 28.5,170.15625 28.5,166.9375 29.25,170.15625 31.71875,174.125 37,174.5 37.21875,173.375 38.53125,175.25 41.75,175.8125 44.21875,175.8125 44.34375,176.03125 46.46875,179.4375 49.5,180.1875 50.625,178.5 50.0625,180.53125 52.71875,181.6875 56.125,185.09375 57.25,187.1875 56.875,189.625 56.5,192.09375 58.75,193.8125 59.90625,192.46875 58.75,190.96875 58.75,187.5625 61.03125,188.125 61.78125,185.84375 62.375,187.1875 64.8125,189.25 65.96875,187.34375 64.8125,184.71875 66.90625,187.5625 69.53125,187.1875 69,185.84375 71.4375,186.40625 73.3125,188.6875 72.375,190.1875 69.9375,189.4375 67.09375,188.125 65.5625,190.03125 67.84375,190.78125 69.53125,193.40625 79.75,192.46875 82.40625,193.03125 81.09375,194.15625 81.28125,195.875 81.625,196.15625 82.59375,196.8125 79,200.03125 79.75,200.78125 80.53125,202.3125 78.625,204.96875 80.6875,206.09375 84.3125,206.84375 84.65625,205.34375 86.75,208 90.1875,208 92.625,205.34375 95.84375,205.34375 92.4375,207.03125 92.625,208.9375 93.375,210.625 91.28125,212.71875 89.03125,212.71875 89.40625,215.5625 93.5625,214.8125 98.5,219.34375 98.25,219.65625 92.625,226.90625 92.4375,231.4375 98.28125,237.09375 98.09375,238.8125 99.78125,238.8125 103.40625,249.59375 107.1875,251.46875 110.96875,255.25 115.3125,255.25 117,259.03125 121.1875,259.03125 123.0625,261.875 127.25,263.96875 127.4375,261.3125 128.46875,262.3125 129.875,263.59375 126.84375,266.03125 126.5,267.9375 123.65625,268.3125 122.125,266.59375 118.34375,266.25 117.96875,264.34375 115.6875,262.8125 112.46875,263.96875 114.5625,267 117.1875,267 119.875,268.6875 121.9375,270.375 125.90625,270.21875 126.65625,271.90625 129.3125,272.46875 130.28125,275.125 131.96875,275.875 131.78125,277.96875 129.5,277.59375 128.75,278.71875 130.4375,281.15625 129.5,285.34375 127.25,285.15625 127.4375,287.78125 128,288.71875 125.34375,288.71875 124.96875,287.21875 126.65625,284.9375 126.09375,283.65625 125.15625,282.875 124.75,278.34375 121.5625,277.96875 118.90625,274.75 118.53125,281.375 122.875,284.59375 123.25,288.1875 124,292.34375 124.40625,296.5 126.65625,296.28125 130.625,299.53125 133.28125,301.03125 133.46875,302.90625 135.5625,303.3125 141.625,309.375 143.03125,315.90625 143.3125,317.125 144.65625,322.59375 145,328.0625 144.0625,329.59375 143.125,325.03125 140.46875,314.65625 130.8125,305.9375 131.03125,301.96875 129.125,301.8125 126.09375,306.34375 125.15625,322.21875 122.71875,338.28125 120.96875,350.75 120.8125,354 122.125,349.65625 124.75,346.21875 128.53125,349.65625 128.9375,350.75 130.0625,352.28125 125.34375,352.5 124.59375,351.34375 122.71875,352.09375 122.3125,354.9375 120.21875,357.78125 120.21875,362.125 120.18755,362.28125 116.8438,380.28125 112.4688,396.90625 111.1563,403.34375 110.0313,407.90625 107.2188,412.75 106.43755,414.125 102.06255,419.4375 98.68755,420.75 96.2188,421.125 96.2188,423.21875 98.50005,425.28125 101.87505,425.46875 102.06255,427.9375 104.7188,428.15625 105.50005,426.40625 109.0938,427.9375 111.3438,428.5 111.9063,430.78125 110.5938,431.9375 110.5938,435.5 107.93755,436.8125 107.75005,438.53125 109.43755,440.4375 112.4688,441.375 113.06255,438.53125 114.75005,436.65625 114.56255,439.09375 115.9063,441 119.2813,441 120.81255,443.0625 125.3438,443.8125 129.68755,446.46875 136.87505,446.46875 137.25005,450.4375 142.1563,454.21875 144.06255,456.5 146.1563,455.375 148.0313,454.96875 148.9688,455.90625 150.68755,454.96875 154.00005,453.15625 154.4688,452.90625 157.68755,454.8125 161.4688,457.65625 161.8438,459.90625 164.8438,462.375 167.3438,462.375 173.56255,459.71875 176.2188,462.71875 179.81255,463.6875 181.12505,461.4375 182.8438,462.1875 186.50005,462.4375 194.18755,462.9375 194.56255,453.65625 197.2188,454.03125 201.12505,456.3125 202.12505,456.875 207.9688,458 210.4688,458 213.6563,462.1875 221.81255,461.78125 225.0313,466.90625 227.87505,465.75 236.18755,466.90625 236.7813,470.375 237.12505,472.375 239.9688,475.03125 245.62505,476.5625 245.81255,479.9375 248.8438,482.625 251.0938,482.21875 254.3438,478.25 258.31255,477.5 264.5313,479.59375 269.8438,484.125 271.3438,482.21875 272.68755,482.21875 274.00005,483.15625 275.12505,482.625 275.31255,479.9375 281.00005,478.625 282.87505,476.15625 285.7188,475.21875 289.68755,475.21875 292.1563,477.875 295.18755,478.0625 295.18755,475.03125 293.68755,472.96875 291.0313,471.8125 290.5938,455.28125 290.43755,449.875 290.6563,443.625 288.37505,443.8125 286.4688,441 288.00005,438.53125 291.18755,441.53125 294.0313,439.28125 295.93755,437.40625 296.18755,435.40625 296.31255,434.375 303.12505,432.28125 303.87505,430.59375 309.18755,430.40625 310.87505,428.3125 321.0938,420.1875 327.50005,415.65625 330.12505,415.8125 333.0313,416.03125 333.0313,419.8125 337.3438,419.59375 339.68755,419.71875 345.6563,420 353.62505,420.5625 355.12505,422.09375 352.2813,422.09375 350.4063,425.28125 358.5313,427 364.9688,425.875 361.56255,422.625 363.81255,420.75 367.43755,422.28125 369.12505,425.875 379.93755,426.0625 382.75005,424.90625 383.31255,426.625 380.2813,429.25 384.4688,429.4375 383.7188,431.34375 382.56255,432.6875 391.81255,432.6875 396.3438,434.1875 396.81255,434.8125 397.31255,435.5 400.7188,437 401.6563,440.78125 403.75005,441.1875 405.6563,439.84375 409.0313,437.75 414.9063,438.34375 414.7188,439.84375 412.81255,440.78125 417.3438,441 416.25005,439.84375 415.8438,437.40625 418.2813,435.71875 421.12505,436.65625 422.2813,437 423.2188,438.15625 424.56255,437.21875 424.9063,434.75 426.43755,433.4375 430.4063,433.4375 431.56255,431.71875 434.18755,432.46875 437.2188,431.15625 437.2188,426.25 433.25005,426.40625 436.2813,424.53125 437.7813,422.4375 438.18755,419.4375 443.6563,418.65625 446.7188,415.25 446.87505,415.0625 447.0313,410.75 450.81255,411.5 452.1563,409.78125 454.06255,410.15625 454.25005,404.28125 458.5938,403.9375 462.37505,400.5 465.7813,400.5 465.9688,398.4375 469.37505,396.375 467.4688,392 470.31255,389.5625 469.75005,386.71875 473.9063,385.375 475.0313,381.25 474.5,378.40625 473.53125,376.6875 472.75,374.21875 469.9375,374.4375 461.0625,377.625 458.21875,377.625 453.3125,373.65625 448.375,372.34375 445.53125,372.34375 445.53125,368.90625 441.5625,366.46875 441.5625,366.34375 441.5625,362.6875 444.21875,362.3125 442.71875,361 440.8125,360.40625 439.875,357.96875 440.625,356.28125 444.03125,352.65625 443.46875,350 443.96875,349.5 445.75,347.5625 447.8125,347.75 447.8125,346.03125 445.15625,344.71875 444.59375,339.21875 442.5,338.46875 439.875,338.875 434.9375,336.375 434.1875,330.71875 431.375,329.78125 430.40625,327.875 429.15625,325.15625 429.09375,325.03125 434.75,322.78125 436.84375,324.09375 438.9375,324.09375 439.125,321.84375 441.5625,320.5 442.5,319.375 447.4375,317.46875 448,314.28125 447.03125,312.75 449.71875,308.21875 447.25,307.28125 446.5,304.625 441.375,301.59375 C 441.375,301.59375 441.67412,295.79122 441.1875,294.75 441.1722,294.7239 441.1687,294.6722 441.1563,294.6563 441.1513,294.6513 441.13,294.6295 441.1251,294.6251 441.1221,294.62531 441.0966,294.62503 441.0939,294.6251 441.09385,294.6181 441.09373,294.5957 441.0939,294.5939 441.0909,294.59401 441.0654,294.59386 441.0627,294.5939 441.0597,294.59375 441.0343,294.59383 441.0315,294.5939 441.0285,294.59382 441.003,294.59391 441.0003,294.5939 440.24377,294.78303 437.40655,295.00015 437.40655,295.00015 L 434.5628,291.75015 434.6565,288.62515 434.7502,285.3439 441.1877,282.68765 441.96895,280.81265 441.5627,276.62515 437.40645,272.2814 436.09395,273.06265 436.09395,271.3439 436.09395,268.50015 432.5002,266.7814 432.3127,265.2814 434.40645,263.00015 434.40645,260.37515 430.96895,256.7814 430.78145,254.31265 424.34395,254.31265 420.03145,255.06265 415.84395,258.4689 414.71895,256.7814 412.6252,256.9689 410.71895,261.12515 410.9377,262.81265 413.0002,264.5314 409.21895,267.00015 406.7502,269.2814 402.59395,269.2814 400.53145,269.2814 400.53145,265.6564 402.8127,264.3439 406.1877,263.9689 406.40645,262.06265 405.2502,261.31265 408.09395,257.7189 407.6877,256.5939 404.46895,254.87515 404.1252,254.68765 404.5002,250.7189 407.34395,247.3439 405.4377,246.56265 405.6252,245.43765 405.6564,245.25015 417.3439,234.25015 417,225.1875 421.125,223.125 423.96875,221.78125 426.625,219.34375 426.8125,215.75 429.46875,214.40625 435.5,207.40625 434.5625,205.15625 436.65625,204.21875 439.125,201.1875 437.78125,199.84375 433.25,200.78125 433.0625,200.03125 437.25,195.21875 437.96875,194.375 440.46875,193.96875 442.71875,193.625 442.3125,195.6875 443.65625,196.8125 450.65625,196.65625 454.25,193.8125 454.4375,189.625 456.34375,187.1875 453.84375,184.3125 452.5625,181.3125 454.0625,179.25 454.0625,174.5 455,172.21875 455,168.4375 456.6875,166 454.8125,163.34375 454.625,157.90625 454.5938,157.3125 459.5313,147.65625 458.9688,142.1875 461.25005,134.78125 461.81255,128.34375 466.7188,124.78125 466.7188,122.5 468.62505,120.03125 470.12505,120.03125 471.81255,118.34375 471.4688,115.125 473.1563,110.59375 475.7813,110 473.1563,107.90625 468.43755,107.375 464.25005,105.28125 461.4063,106.96875 459.9063,105.28125 457.8438,105.28125 454.25005,106.28125 453.8438,106.40625 452.56255,104.53125 448.7813,102.25 447.43755,100.1875 442.9063,100.5625 440.2188,103.03125 433.81255,103.1875 431.9063,101.875 C 431.77848,101.64315 430.84895,99.98699 430.0313,99.53125 429.9996,99.51445 429.9436,99.48495 429.9063,99.46875 429.8787,99.45745 429.8357,99.44425 429.8126,99.43755 429.8023,99.43255 429.761,99.41185 429.7501,99.40635 429.7471,99.40636 429.7222,99.40622 429.7189,99.40635 429.6947,99.40535 429.6758,99.40635 429.6564,99.40635 428.76985,99.40636 427.0239,98.40603 426.81265,98.28135 L 424.1564,99.40635 423.9689,101.6876 420.7814,102.09385 418.87515,98.46885 417.75015,98.09385 417.75015,95.4376 415.0939,94.3126 414.9064,89.7501 413.00015,87.8751 409.0314,85.96885 407.1564,85.96885 406.5939,86.3751 404.68765,86.3751 402.0314,84.09385 399.18765,84.28135 396.93765,86.1876 396.3439,87.1251 393.1564,87.1251 392.0314,85.96885 391.5314,85.96885 389.00015,85.96885 385.5939,82.1876 381.2189,82.1876 378.9689,84.28135 375.75015,84.46885 374.62515,85.6251 374.37515,85.6251 373.4689,85.6251 372.7189,82.0001 371.2189,80.5001 370.12515,80.34385 368.75015,80.1251 368.00015,76.34385 366.50015,75.21885 361.18765,74.6251 360.25015,72.1876 358.5314,71.0626 352.4689,70.3126 352.12515,65.9376 352.87515,65.1876 352.87515,63.5001 349.8439,61.59385 350.4064,59.5001 351.18765,57.6251 349.8439,56.46885 351.93765,54.59385 351.93765,51.1876 351.18765,50.6251 348.3439,50.6251 346.43765,53.4376 344.7189,55.1876 344.7189,56.8751 344.7189,59.1251 342.4689,60.65635 338.31265,61.96885 336.0314,62.90635 333.37515,60.84385 329.7814,60.84385 325.93765,60.84385 325.62515,60.84385 325.4689,58.96885 329.25,56.6875 328.65625,53.09375 325.0625,52.15625 326,51.1875 326,48.53125 328.84375,46.46875 328.09375,44.9375 322.03125,40.21875 311.4375,40.8125 310.3125,42.6875 309,42.6875 309.1875,36.0625 306.15625,32.46875 303.875,32.84375 302.53125,31.3125 298.75,33.03125 297.46875,31.71875 294.8125,31.3125 294.03125,28.875 293.875,21.3125 292.15625,20.5625 291.96875,19.40625 290.84375,19.40625 290.4375,17.125 288,17.34375 283.28125,18.875 281,21.6875 278.71875,21.6875 277.21875,19.8125 276.65625,17.71875 274.78125,15.625 272.09375,15.625 270.96875,13.5625 270.96875,10.3125 272.28125,8.28125 271.53125,5.4375 z"
     id="france"
     style="fill:none;stroke:#000000;stroke-opacity:1" />
</svg>
